<svg id="duckFavicon" xmlns="http://www.w3.org/2000/svg" fill="none" viewBox="0 0 128 128">
    <rect id="rectPath" fill="#4d2b87" width="100" height="100" rx="20"/>
    <path id="duckPath" fill="#e8c70d" d="m 21.10049,38.796028 c 0,0 4.05253,1.633609 3.908849,5.690076 -0.141709,4.058435 -13.108232,5.819976 -13.108232,21.835246 0,16.015269 17.902776,28.601924 37.822963,28.601924 19.91821,0 46.984937,-11.67538 46.984937,-35.093059 0,-39.316825 -2.977882,-12.072958 -34.002674,-12.072958 -10.30354,0 -12.141847,-3.517179 -10.51414,-5.522778 C 59.887868,32.765454 62.706333,7.8972077 37.588122,7.8972077 21.1989,8.2377068 17.240842,21.568347 17.266429,24.798168 17.28218,27.067506 14.896712,27.835106 2.8828018,27.372578 -0.14035757,38.431911 21.10049,38.796028 21.10049,38.796028 Z m 7.420125,-20.402394 c 2.172896,0 3.936406,1.765479 3.936406,3.936408 0,2.172896 -1.76351,3.936406 -3.936406,3.936406 -2.170929,0 -3.936407,-1.76351 -3.936407,-3.936406 0,-2.170929 1.765478,-3.936408 3.936407,-3.936408 z"/>
</svg>
